<?xml version="1.0" encoding="UTF-8" standalone="no"?>
<svg
   xmlns:dc="http://purl.org/dc/elements/1.1/"
   xmlns:cc="http://creativecommons.org/ns#"
   xmlns:rdf="http://www.w3.org/1999/02/22-rdf-syntax-ns#"
   xmlns:svg="http://www.w3.org/2000/svg"
   xmlns="http://www.w3.org/2000/svg"
   xmlns:sodipodi="http://sodipodi.sourceforge.net/DTD/sodipodi-0.dtd"
   xmlns:inkscape="http://www.inkscape.org/namespaces/inkscape"
   version="1.0"
   width="1920.000000pt"
   height="1080.000000pt"
   viewBox="0 0 1920.000000 1080.000000"
   preserveAspectRatio="xMidYMid meet"
   id="svg3731"
   sodipodi:docname="logoBande3.svg"
   inkscape:version="0.92.4 (5da689c313, 2019-01-14)">
  <defs
     id="defs3735" />
  <sodipodi:namedview
     pagecolor="#ffffff"
     bordercolor="#666666"
     borderopacity="1"
     objecttolerance="10"
     gridtolerance="10"
     guidetolerance="10"
     inkscape:pageopacity="0"
     inkscape:pageshadow="2"
     inkscape:window-width="950"
     inkscape:window-height="708"
     id="namedview3733"
     showgrid="false"
     inkscape:zoom="0.41640733"
     inkscape:cx="402.27915"
     inkscape:cy="1006.8046"
     inkscape:window-x="459"
     inkscape:window-y="135"
     inkscape:window-maximized="0"
     inkscape:current-layer="svg3731" />
  <metadata
     id="metadata3725">
Created by potrace 1.15, written by Peter Selinger 2001-2017
<rdf:RDF>
  <cc:Work
     rdf:about="">
    <dc:format>image/svg+xml</dc:format>
    <dc:type
       rdf:resource="http://purl.org/dc/dcmitype/StillImage" />
  </cc:Work>
</rdf:RDF>
</metadata>
  <g
     transform="translate(0.000000,1080.000000) scale(0.100000,-0.100000)"
     fill="#000000"
     stroke="none"
     id="g3729">
    <path
       d="M3429 7327 c-196 -146 -419 -312 -720 -534 -139 -103 -570 -422 -875 -649 -134 -100 -245 -179 -248 -176 -3 2 -31 -14 -62 -38 l-57 -43 6 -186 c4 -102 7 -381 7 -618 l0 -433 275 0 275 0 0 490 c0 379 3 492 13 500 13 12 216 160 257 188 14 9 151 109 305 221 154 113 294 214 310 225 54 38 468 338 580 422 61 44 122 89 137 99 l28 17 82 -63 c210 -161 303 -227 313 -221 5 3 106 80 224 171 l213 165 -28 23 c-16 13 -132 100 -259 194 -126 94 -241 179 -255 189 -152 114 -287 213 -295 216 -5 2 -107 -70 -226 -159z"
       id="path3727" />
  </g>
  <path
     style="fill:none;stroke:#ffffff;stroke-width:0.75px;stroke-linecap:butt;stroke-linejoin:miter;stroke-opacity:1"
     d="m 159.47559,482.40401 -13.72972,9.43856"
     id="path4558"
     inkscape:connector-curvature="0" />
  <path
     style="fill:none;stroke:#ffffff;stroke-width:2.60721636px;stroke-linecap:butt;stroke-linejoin:miter;stroke-opacity:1"
     d="m 145.82324,614.09944 0.65498,-134.2217"
     id="path4560"
     inkscape:connector-curvature="0" />
</svg>
